<?xml version="1.0" encoding="utf-8"?>
<!-- Generator: Adobe Illustrator 16.0.0, SVG Export Plug-In . SVG Version: 6.00 Build 0)  -->
<!DOCTYPE svg PUBLIC "-//W3C//DTD SVG 1.1//EN" "http://www.w3.org/Graphics/SVG/1.1/DTD/svg11.dtd">
<svg version="1.1" id="Layer_1" xmlns="http://www.w3.org/2000/svg" xmlns:xlink="http://www.w3.org/1999/xlink" x="0px" y="0px"
	 width="416.582px" height="258.097px" viewBox="0 0 416.582 258.097" enable-background="new 0 0 416.582 258.097"
	 xml:space="preserve">
<g id="RDuMjH.tif">
	<path fill-rule="evenodd" clip-rule="evenodd" fill="#FFFFFF" d="M101.091,149.879c1.137-4.729,2.265-9.458,3.411-14.185
		c3.167-13.053,4.021-26.259,2.785-39.631c-1.129-12.21-3.917-23.982-8.392-35.414c-1.28-3.271-1.681-6.921-2.208-10.438
		c-0.299-1.993,0.704-3.33,2.88-3.963c3.93-1.143,7.476-0.416,10.871,1.58c4.981,2.928,8.608,7.266,11.495,12.095
		c2.964,4.958,5.403,10.234,7.978,15.417c0.859,1.728,1.952,2.54,3.705,1.759c1.881-0.838,3.701-1.919,5.347-3.16
		c10.112-7.622,21.572-6.8,29.703,2.082c2.221,2.426,4.075,5.27,5.694,8.147c2.851,5.071,7.194,5.857,11.498,1.834
		c1.284-1.201,2.626-2.349,4.004-3.442c7.478-5.937,20.963-4.355,28.484,1.763c7.115,5.788,11.342,13.444,13.853,22.009
		c2.194,7.481,3.686,15.165,5.549,22.745c2.331,9.479,4.793,18.916,8.726,27.908c0.817,1.87,1.164,4.007,1.388,6.057
		c0.26,2.388-0.941,3.169-3.238,2.501c-8.352-2.425-14.503-7.796-19.53-14.627c-3.851-5.23-6.778-10.951-8.942-17.09
		c-2.272-6.443-5.977-12.007-10.965-16.688c-3.189-2.992-5.504-3.329-9.387-1.305c-4,2.085-7.271,5.114-10.121,8.538
		c-3.631,4.36-6.953,8.979-10.61,13.316c-2.699,3.201-5.778,6.031-10.027,7.171c-2.85,0.765-5.297,0.074-7.387-1.91
		c-4.24-4.028-5.609-9.401-6.941-14.816c-0.635-2.58-1.518-5.103-2.374-7.623c-0.245-0.72-0.692-1.435-1.229-1.971
		c-0.402-0.401-1.204-0.816-1.626-0.666c-0.42,0.15-0.802,0.99-0.832,1.548c-0.135,2.542,0,5.104-0.217,7.637
		c-0.907,10.618-2.313,21.201-7.085,30.862c-6.252,12.659-24.519,14.2-32.685,2.987c-2.368-3.252-3.109-6.974-3.077-10.908
		C101.421,149.959,101.256,149.919,101.091,149.879z"/>
	<path fill-rule="evenodd" clip-rule="evenodd" fill="#FFFFFF" d="M348.644,167.66c-14.402-0.354-24.876-5.699-31.955-17.193
		c-1.672-2.716-3.135-2.795-5.102-0.364c-4.807,5.943-10.301,11.087-17.096,14.725c-11.578,6.196-22.467,4.159-31.113-5.757
		c-7.034-8.067-11.34-17.614-14.871-27.538c-4.355-12.234-7.445-24.812-9.193-37.686c-0.288-2.128,0.011-4.426,0.485-6.544
		c0.571-2.553,2.505-3.436,4.765-2.079c2.26,1.358,4.427,3.037,6.238,4.95c8.214,8.677,14.604,18.709,20.916,28.782
		c3.712,5.925,8.697,7.57,14.81,4.155c3.134-1.75,5.781-4.384,8.603-6.676c3.428-2.787,6.528-6.095,10.264-8.365
		c9.287-5.646,18.771-3.737,25.545,4.781c1.733,2.182,3.093,4.667,4.562,7.052c3.067,4.979,6.553,9.617,11.093,13.349
		c10.107,8.305,21.217,9.156,33.023,4.218c6.207-2.597,11.605-6.41,16.62-10.883c1.95-1.738,4.295-3.187,6.693-4.231
		c2.497-1.088,4.042,0.075,4.7,2.706c0.797,3.184-0.038,6.091-1.451,8.868c-2.471,4.858-6.168,8.726-10.312,12.165
		c-8.719,7.236-17.922,13.737-28.674,17.648c-3.353,1.219-6.83,2.176-10.322,2.903C353.824,167.281,350.673,167.425,348.644,167.66z
		"/>
	<path fill-rule="evenodd" clip-rule="evenodd" fill="#FFFFFF" d="M6.747,86.429c0.076-13.013,0.96-22.211,4.865-30.682
		c7.09-15.38,17.134-28.467,31.386-37.994c10.726-7.171,22.541-10.375,35.408-9.367c9.216,0.722,12.813,6.684,12.511,14.824
		c-0.138,3.715-1.093,7.475-2.183,11.062c-1.357,4.464-4.45,7.304-8.959,9.089c-14.311,5.667-26.813,13.891-36.016,26.584
		c-5.262,7.258-6.766,15.435-6.193,24.099c0.841,12.742,6.009,23.771,14.74,32.86c4.94,5.144,10.78,9.462,16.437,13.867
		c5.608,4.367,11.598,8.245,17.206,12.615c2.051,1.598,3.753,3.825,5.129,6.063c1.711,2.784,0.431,4.829-2.874,5.338
		c-4.211,0.648-8.389,0.175-12.387-0.989c-24.902-7.253-45.146-21.021-59-43.279C9.646,108.998,6.56,96.237,6.747,86.429z"/>
</g>
<rect x="153.891" y="177.865" fill-rule="evenodd" clip-rule="evenodd" fill="none" width="394.48" height="94.495"/>
<text transform="matrix(1 0 0 1 153.8906 228.0249)" fill="#FFFFFF" font-family="'OpenSans-Light'" font-size="66">Planning</text>
</svg>
