<?xml version="1.0" encoding="utf-8"?>
<!-- Generator: Adobe Illustrator 16.0.0, SVG Export Plug-In . SVG Version: 6.00 Build 0)  -->
<!DOCTYPE svg PUBLIC "-//W3C//DTD SVG 1.1//EN" "http://www.w3.org/Graphics/SVG/1.1/DTD/svg11.dtd">
<svg version="1.1" id="Layer_1" xmlns="http://www.w3.org/2000/svg" xmlns:xlink="http://www.w3.org/1999/xlink" x="0px" y="0px"
	 width="128px" height="128px" viewBox="0 0 128 128" enable-background="new 0 0 128 128" xml:space="preserve">
<circle fill="#484848" cx="64" cy="63.6" r="58.7"/>
<path fill="#303030" d="M71.4,52c2.4,0,3.6-10.7,5.6-10.7c2.5,0-0.1,5.3,1.8,5.3c15.9-0.3,1.6,1.1,9.5,2
	c4.5,5.9,21.4,28.5,29.3,39.3c-8.6,19-27,32.6-48.8,34.3L39.8,83.6l1.4-28.8l7.1-4.3l2.8-8.3l3.3,0.6l1.2,5.1L71.4,52z"/>
<g>
	<path fill="#F4F4FA" d="M51.2,63.6c0,0.6-0.5,1.1-1.1,1.1h-3.5c-0.6,0-1.1-0.5-1.1-1.1c0-0.6,0.5-1.1,1.1-1.1h3.5
		C50.7,62.5,51.2,63,51.2,63.6z"/>
	<path fill="#F4F4FA" d="M61.3,63.6c0,0.6-0.5,1.1-1.1,1.1h-3.5c-0.6,0-1.1-0.5-1.1-1.1c0-0.6,0.5-1.1,1.1-1.1h3.5
		C60.8,62.5,61.3,63,61.3,63.6z"/>
	<path fill="#F4F4FA" d="M71.4,63.6c0,0.6-0.5,1.1-1.1,1.1h-3.5c-0.6,0-1.1-0.5-1.1-1.1c0-0.6,0.5-1.1,1.1-1.1h3.5
		C70.9,62.5,71.4,63,71.4,63.6z"/>
	<path fill="#F4F4FA" d="M81.5,63.6c0,0.6-0.5,1.1-1.1,1.1h-3.5c-0.6,0-1.1-0.5-1.1-1.1c0-0.6,0.5-1.1,1.1-1.1h3.5
		C81,62.5,81.5,63,81.5,63.6z"/>
	<path fill="#F4F4FA" d="M51.2,70.8c0,0.6-0.5,1.1-1.1,1.1h-3.5c-0.6,0-1.1-0.5-1.1-1.1c0-0.6,0.5-1.1,1.1-1.1h3.5
		C50.7,69.8,51.2,70.2,51.2,70.8z"/>
	<path fill="#F4F4FA" d="M61.3,70.8c0,0.6-0.5,1.1-1.1,1.1h-3.5c-0.6,0-1.1-0.5-1.1-1.1c0-0.6,0.5-1.1,1.1-1.1h3.5
		C60.8,69.8,61.3,70.2,61.3,70.8z"/>
	<path fill="#F4F4FA" d="M71.4,70.8c0,0.6-0.5,1.1-1.1,1.1h-3.5c-0.6,0-1.1-0.5-1.1-1.1c0-0.6,0.5-1.1,1.1-1.1h3.5
		C70.9,69.8,71.4,70.2,71.4,70.8z"/>
	<path fill="#F4F4FA" d="M81.5,70.8c0,0.6-0.5,1.1-1.1,1.1h-3.5c-0.6,0-1.1-0.5-1.1-1.1c0-0.6,0.5-1.1,1.1-1.1h3.5
		C81,69.8,81.5,70.2,81.5,70.8z"/>
	<path fill="#F4F4FA" d="M51.2,78.1c0,0.6-0.5,1.1-1.1,1.1h-3.5c-0.6,0-1.1-0.5-1.1-1.1c0-0.6,0.5-1.1,1.1-1.1h3.5
		C50.7,77,51.2,77.4,51.2,78.1z"/>
	<path fill="#F4F4FA" d="M61.3,78.1c0,0.6-0.5,1.1-1.1,1.1h-3.5c-0.6,0-1.1-0.5-1.1-1.1c0-0.6,0.5-1.1,1.1-1.1h3.5
		C60.8,77,61.3,77.4,61.3,78.1z"/>
	<path fill="#F4F4FA" d="M71.4,78.1c0,0.6-0.5,1.1-1.1,1.1h-3.5c-0.6,0-1.1-0.5-1.1-1.1c0-0.6,0.5-1.1,1.1-1.1h3.5
		C70.9,77,71.4,77.4,71.4,78.1z"/>
	<path fill="#F4F4FA" d="M81.5,78.1c0,0.6-0.5,1.1-1.1,1.1h-3.5c-0.6,0-1.1-0.5-1.1-1.1c0-0.6,0.5-1.1,1.1-1.1h3.5
		C81,77,81.5,77.4,81.5,78.1z"/>
	<path fill="#F4F4FA" d="M84.6,46h-4.7v-2.6c0-1.1-0.9-2-2-2h-2.9c-1.1,0-2,0.9-2,2V46H55.5v-2.6c0-1.1-0.9-2-2-2h-2.9
		c-1.1,0-2,0.9-2,2V46h-5c-2,0-3.6,1.6-3.6,3.6v32.7c0,2,1.6,3.6,3.6,3.6h41.1c2,0,3.6-1.6,3.6-3.6V49.6C88.2,47.6,86.6,46,84.6,46z
		 M75,43.5h2.7v3.6v2.9H75v-2.9V43.5z M50.6,43.5h2.7v3.6v2.9h-2.7v-2.9V43.5z M84.6,83.8H43.5c-0.8,0-1.5-0.6-1.5-1.5V57.6h44v24.7
		C86.1,83.1,85.4,83.8,84.6,83.8z"/>
</g>
</svg>
